<mxfile host="app.diagrams.net" agent="Mozilla/5.0 (Windows NT 10.0; Win64; x64) AppleWebKit/537.36 (KHTML, like Gecko) Chrome/129.0.0.0 Safari/537.36" version="24.8.6">
  <diagram id="C5RBs43oDa-KdzZeNtuy" name="Page-1">
    <mxGraphModel dx="836" dy="443" grid="1" gridSize="10" guides="1" tooltips="1" connect="1" arrows="1" fold="1" page="1" pageScale="1" pageWidth="827" pageHeight="1169" math="0" shadow="0">
      <root>
        <mxCell id="WIyWlLk6GJQsqaUBKTNV-0" />
        <mxCell id="WIyWlLk6GJQsqaUBKTNV-1" parent="WIyWlLk6GJQsqaUBKTNV-0" />
        <mxCell id="cI0F31W6vmj1P42Bsl85-2" value="" style="edgeStyle=orthogonalEdgeStyle;rounded=0;orthogonalLoop=1;jettySize=auto;html=1;" edge="1" parent="WIyWlLk6GJQsqaUBKTNV-1" source="cI0F31W6vmj1P42Bsl85-0" target="cI0F31W6vmj1P42Bsl85-1">
          <mxGeometry relative="1" as="geometry" />
        </mxCell>
        <mxCell id="cI0F31W6vmj1P42Bsl85-0" value="bắt đầu" style="ellipse;whiteSpace=wrap;html=1;" vertex="1" parent="WIyWlLk6GJQsqaUBKTNV-1">
          <mxGeometry x="350" y="120" width="120" height="80" as="geometry" />
        </mxCell>
        <mxCell id="cI0F31W6vmj1P42Bsl85-4" value="" style="edgeStyle=orthogonalEdgeStyle;rounded=0;orthogonalLoop=1;jettySize=auto;html=1;" edge="1" parent="WIyWlLk6GJQsqaUBKTNV-1" source="cI0F31W6vmj1P42Bsl85-1" target="cI0F31W6vmj1P42Bsl85-3">
          <mxGeometry relative="1" as="geometry" />
        </mxCell>
        <mxCell id="cI0F31W6vmj1P42Bsl85-1" value="nhập a,b" style="shape=parallelogram;perimeter=parallelogramPerimeter;whiteSpace=wrap;html=1;fixedSize=1;" vertex="1" parent="WIyWlLk6GJQsqaUBKTNV-1">
          <mxGeometry x="350" y="260" width="120" height="60" as="geometry" />
        </mxCell>
        <mxCell id="cI0F31W6vmj1P42Bsl85-7" value="" style="edgeStyle=orthogonalEdgeStyle;rounded=0;orthogonalLoop=1;jettySize=auto;html=1;" edge="1" parent="WIyWlLk6GJQsqaUBKTNV-1" source="cI0F31W6vmj1P42Bsl85-3" target="cI0F31W6vmj1P42Bsl85-6">
          <mxGeometry relative="1" as="geometry" />
        </mxCell>
        <mxCell id="cI0F31W6vmj1P42Bsl85-13" value="" style="edgeStyle=orthogonalEdgeStyle;rounded=0;orthogonalLoop=1;jettySize=auto;html=1;" edge="1" parent="WIyWlLk6GJQsqaUBKTNV-1" source="cI0F31W6vmj1P42Bsl85-3" target="cI0F31W6vmj1P42Bsl85-12">
          <mxGeometry relative="1" as="geometry" />
        </mxCell>
        <mxCell id="cI0F31W6vmj1P42Bsl85-3" value="a khác 0" style="rhombus;whiteSpace=wrap;html=1;" vertex="1" parent="WIyWlLk6GJQsqaUBKTNV-1">
          <mxGeometry x="370" y="380" width="80" height="80" as="geometry" />
        </mxCell>
        <mxCell id="cI0F31W6vmj1P42Bsl85-5" value="ax + b = 0" style="text;html=1;align=center;verticalAlign=middle;resizable=0;points=[];autosize=1;strokeColor=none;fillColor=none;" vertex="1" parent="WIyWlLk6GJQsqaUBKTNV-1">
          <mxGeometry width="80" height="30" as="geometry" />
        </mxCell>
        <mxCell id="cI0F31W6vmj1P42Bsl85-9" value="" style="edgeStyle=orthogonalEdgeStyle;rounded=0;orthogonalLoop=1;jettySize=auto;html=1;" edge="1" parent="WIyWlLk6GJQsqaUBKTNV-1" source="cI0F31W6vmj1P42Bsl85-6" target="cI0F31W6vmj1P42Bsl85-8">
          <mxGeometry relative="1" as="geometry" />
        </mxCell>
        <mxCell id="cI0F31W6vmj1P42Bsl85-11" value="" style="edgeStyle=orthogonalEdgeStyle;rounded=0;orthogonalLoop=1;jettySize=auto;html=1;" edge="1" parent="WIyWlLk6GJQsqaUBKTNV-1" source="cI0F31W6vmj1P42Bsl85-6" target="cI0F31W6vmj1P42Bsl85-10">
          <mxGeometry relative="1" as="geometry" />
        </mxCell>
        <mxCell id="cI0F31W6vmj1P42Bsl85-6" value="b khác 0" style="rhombus;whiteSpace=wrap;html=1;" vertex="1" parent="WIyWlLk6GJQsqaUBKTNV-1">
          <mxGeometry x="530" y="380" width="80" height="80" as="geometry" />
        </mxCell>
        <mxCell id="cI0F31W6vmj1P42Bsl85-8" value="phương trình có vô số nghiệm" style="shape=parallelogram;perimeter=parallelogramPerimeter;whiteSpace=wrap;html=1;fixedSize=1;" vertex="1" parent="WIyWlLk6GJQsqaUBKTNV-1">
          <mxGeometry x="670" y="390" width="160" height="60" as="geometry" />
        </mxCell>
        <mxCell id="cI0F31W6vmj1P42Bsl85-10" value="phương trình vô nghiệm" style="shape=parallelogram;perimeter=parallelogramPerimeter;whiteSpace=wrap;html=1;fixedSize=1;" vertex="1" parent="WIyWlLk6GJQsqaUBKTNV-1">
          <mxGeometry x="505" y="520" width="130" height="60" as="geometry" />
        </mxCell>
        <mxCell id="cI0F31W6vmj1P42Bsl85-15" value="" style="edgeStyle=orthogonalEdgeStyle;rounded=0;orthogonalLoop=1;jettySize=auto;html=1;" edge="1" parent="WIyWlLk6GJQsqaUBKTNV-1" source="cI0F31W6vmj1P42Bsl85-12" target="cI0F31W6vmj1P42Bsl85-14">
          <mxGeometry relative="1" as="geometry" />
        </mxCell>
        <mxCell id="cI0F31W6vmj1P42Bsl85-12" value="tính x = -b/a" style="whiteSpace=wrap;html=1;" vertex="1" parent="WIyWlLk6GJQsqaUBKTNV-1">
          <mxGeometry x="350" y="520" width="120" height="60" as="geometry" />
        </mxCell>
        <mxCell id="cI0F31W6vmj1P42Bsl85-17" value="" style="edgeStyle=orthogonalEdgeStyle;rounded=0;orthogonalLoop=1;jettySize=auto;html=1;" edge="1" parent="WIyWlLk6GJQsqaUBKTNV-1" source="cI0F31W6vmj1P42Bsl85-14" target="cI0F31W6vmj1P42Bsl85-16">
          <mxGeometry relative="1" as="geometry" />
        </mxCell>
        <mxCell id="cI0F31W6vmj1P42Bsl85-14" value="phương trình có nghiệm x" style="shape=parallelogram;perimeter=parallelogramPerimeter;whiteSpace=wrap;html=1;fixedSize=1;" vertex="1" parent="WIyWlLk6GJQsqaUBKTNV-1">
          <mxGeometry x="350" y="640" width="120" height="60" as="geometry" />
        </mxCell>
        <mxCell id="cI0F31W6vmj1P42Bsl85-16" value="kết thúc" style="ellipse;whiteSpace=wrap;html=1;" vertex="1" parent="WIyWlLk6GJQsqaUBKTNV-1">
          <mxGeometry x="350" y="760" width="120" height="80" as="geometry" />
        </mxCell>
        <mxCell id="cI0F31W6vmj1P42Bsl85-18" value="sai" style="text;html=1;align=center;verticalAlign=middle;resizable=0;points=[];autosize=1;strokeColor=none;fillColor=none;" vertex="1" parent="WIyWlLk6GJQsqaUBKTNV-1">
          <mxGeometry x="450" y="390" width="40" height="30" as="geometry" />
        </mxCell>
        <mxCell id="cI0F31W6vmj1P42Bsl85-19" value="sai" style="text;html=1;align=center;verticalAlign=middle;resizable=0;points=[];autosize=1;strokeColor=none;fillColor=none;" vertex="1" parent="WIyWlLk6GJQsqaUBKTNV-1">
          <mxGeometry x="610" y="390" width="40" height="30" as="geometry" />
        </mxCell>
        <mxCell id="cI0F31W6vmj1P42Bsl85-20" value="đúng" style="text;html=1;align=center;verticalAlign=middle;resizable=0;points=[];autosize=1;strokeColor=none;fillColor=none;" vertex="1" parent="WIyWlLk6GJQsqaUBKTNV-1">
          <mxGeometry x="565" y="458" width="50" height="30" as="geometry" />
        </mxCell>
        <mxCell id="cI0F31W6vmj1P42Bsl85-21" value="đúng" style="text;html=1;align=center;verticalAlign=middle;resizable=0;points=[];autosize=1;strokeColor=none;fillColor=none;" vertex="1" parent="WIyWlLk6GJQsqaUBKTNV-1">
          <mxGeometry x="405" y="458" width="50" height="30" as="geometry" />
        </mxCell>
      </root>
    </mxGraphModel>
  </diagram>
</mxfile>
